<svg version="1.1" id="Layer_1" xmlns="http://www.w3.org/2000/svg" xmlns:xlink="http://www.w3.org/1999/xlink" x="0px" y="0px"
	 width="100%" viewBox="0 0 400 400" enable-background="new 0 0 400 400" xml:space="preserve">
<path fill="#3A56DC" opacity="1.000000" stroke="none" 
	d="
M257.000000,401.000000 
	C171.333328,401.000000 86.166664,401.000000 1.000000,401.000000 
	C1.000000,267.666656 1.000000,134.333328 1.000000,1.000000 
	C134.333328,1.000000 267.666656,1.000000 401.000000,1.000000 
	C401.000000,134.333328 401.000000,267.666656 401.000000,401.000000 
	C353.166656,401.000000 305.333344,401.000000 257.000000,401.000000 
M241.359909,149.855240 
	C252.673889,142.545029 263.903229,135.098434 275.346466,127.996513 
	C279.510254,125.412384 279.897461,122.969810 277.087006,119.169426 
	C274.324677,115.434120 271.753326,111.512123 269.528503,107.437111 
	C267.146057,103.073486 264.590332,103.046265 260.719696,105.632904 
	C250.767258,112.283752 240.059875,117.929008 230.687057,125.291107 
	C219.366867,134.182831 207.080643,137.608948 193.153381,135.829559 
	C189.524536,135.365921 185.622147,134.425247 182.566864,132.536575 
	C168.144745,123.621315 153.940765,114.350441 139.736969,105.086845 
	C136.540329,103.002037 134.368362,103.286812 132.366547,106.620895 
	C129.628815,111.180649 126.751678,115.664864 123.747986,120.053955 
	C121.643120,123.129623 121.756081,125.260719 125.158852,127.404602 
	C137.957581,135.468307 150.620697,143.746964 163.359711,151.905930 
	C169.962692,156.134964 177.213196,158.267670 185.064011,158.283279 
	C194.385468,158.301804 203.710876,158.127762 213.027344,158.345947 
	C223.181442,158.583771 232.455414,156.203217 241.359909,149.855240 
M266.268707,216.742798 
	C270.914642,211.889786 270.917053,211.521805 266.166901,206.766571 
	C257.572815,198.163361 249.024887,189.513107 240.356171,180.985687 
	C232.288559,173.049622 222.600174,168.868851 211.185699,168.916550 
	C204.189468,168.945770 197.192581,168.971832 190.196777,168.910065 
	C179.909378,168.819229 170.692352,172.051468 163.261780,178.998093 
	C153.046051,188.548477 143.370651,198.676315 133.444901,208.537750 
	C131.236252,210.732071 131.248016,212.813522 133.456955,214.992706 
	C137.251083,218.735687 141.189819,222.355545 144.719696,226.335846 
	C147.809204,229.819611 150.103897,229.569199 153.286285,226.331772 
	C167.298523,212.077179 181.503418,198.011932 195.645813,183.885391 
	C200.396454,179.140060 200.929001,179.123566 205.608231,183.793503 
	C219.639038,197.796478 233.647141,211.822235 247.673401,225.829758 
	C252.204376,230.354691 252.622971,230.343353 257.281158,225.725739 
	C260.120422,222.911194 262.937347,220.074142 266.268707,216.742798 
M151.056335,262.623413 
	C151.056335,276.596191 150.993927,290.569427 151.092545,304.541534 
	C151.124100,309.012756 151.366135,313.507050 151.901901,317.943695 
	C152.508896,322.970184 155.713959,326.445709 160.566986,326.933258 
	C167.278503,327.607513 174.141663,327.755768 180.853653,327.159149 
	C187.283081,326.587708 191.864609,322.332184 192.416977,315.901825 
	C193.135696,307.535156 193.321686,298.983643 192.407074,290.657806 
	C191.610657,283.408112 186.308365,279.433319 178.935074,278.976105 
	C173.377045,278.631409 167.780472,278.907898 161.719147,278.907898 
	C161.719147,272.989227 161.516281,266.353943 161.791458,259.738586 
	C161.970795,255.427414 160.521057,254.054794 156.115662,253.909012 
	C149.414124,253.687271 151.338959,258.194611 151.056335,262.623413 
M210.042877,74.004509 
	C204.050476,74.001770 198.057343,74.054108 192.065994,73.973442 
	C188.995468,73.932106 187.316147,75.208649 187.313065,78.346558 
	C187.299225,92.495239 187.304459,106.643944 187.307724,120.792641 
	C187.308426,123.852501 188.757324,125.351204 191.912720,125.311813 
	C197.737701,125.239105 203.564972,125.238914 209.389877,125.315170 
	C212.814285,125.359985 214.066711,123.772179 214.043915,120.417603 
	C213.949997,106.602402 214.107117,92.784431 213.870239,78.972656 
	C213.841873,77.318520 211.969391,75.696007 210.042877,74.004509 
M296.831085,312.604950 
	C297.245758,318.254608 299.218658,323.620026 304.548492,325.682007 
	C314.255951,329.437561 324.358429,329.532837 334.043030,325.115204 
	C335.231018,324.573273 336.605133,321.596039 336.130951,320.809265 
	C334.913879,318.789764 333.746033,316.073853 330.021362,317.134033 
	C325.802704,318.334869 321.365967,319.278290 317.005646,319.360809 
	C309.272003,319.507111 306.467224,315.705750 307.866821,307.507721 
	C314.739594,307.507721 321.719208,307.822205 328.646454,307.356689 
	C331.514587,307.163971 335.356201,306.106842 336.881134,304.052063 
	C342.239105,296.832581 337.201050,282.241150 328.465210,280.108856 
	C322.788971,278.723328 316.621826,278.792877 310.712372,279.056641 
	C302.959045,279.402710 297.741058,284.532043 297.061188,292.353302 
	C296.502838,298.776123 296.807709,305.273956 296.831085,312.604950 
M128.018509,327.878052 
	C130.848190,326.988800 133.867554,326.448090 136.424026,325.056824 
	C137.624344,324.403625 138.937286,321.535980 138.445175,320.678345 
	C137.278122,318.644470 136.102142,316.044922 132.323746,317.135834 
	C127.807564,318.439789 122.999100,319.310181 118.315338,319.318665 
	C111.379570,319.331238 108.700737,314.949982 110.546989,307.887756 
	C110.696144,307.827362 110.844727,307.715668 110.994530,307.714020 
	C117.816353,307.638519 124.659668,307.863068 131.449692,307.363007 
	C134.171249,307.162567 137.788651,306.126892 139.251923,304.167328 
	C144.608322,296.994141 139.668716,281.972504 130.998962,280.203186 
	C124.174385,278.810425 116.818214,279.049927 109.824326,279.777313 
	C104.546005,280.326263 100.563171,284.463928 100.061836,289.831726 
	C99.294182,298.050873 98.851593,306.445953 99.667831,314.626984 
	C100.501709,322.984924 105.734657,327.110870 114.134781,327.804352 
	C118.434631,328.159332 122.784477,327.908630 128.018509,327.878052 
M214.244080,327.662109 
	C220.533798,327.532654 226.844421,327.674133 233.106888,327.191223 
	C238.475357,326.777222 241.705704,323.204559 241.935303,318.003815 
	C242.344772,308.727905 242.675125,299.374481 241.860657,290.157532 
	C241.564087,286.801544 238.589645,282.055206 235.652130,280.863312 
	C226.694016,277.228607 217.152557,277.372955 208.050247,281.143951 
	C206.899887,281.620544 205.639816,284.332336 206.022629,285.475433 
	C206.759491,287.675720 208.102936,289.795624 211.594894,288.856018 
	C215.533997,287.796051 219.706741,287.258972 223.792923,287.167511 
	C230.855682,287.009460 232.755493,289.650879 231.337814,296.632111 
	C225.864700,297.018097 220.365616,297.070038 214.975800,297.863861 
	C206.662491,299.088287 202.223923,303.818481 201.836426,311.045044 
	C201.322601,320.627167 204.332474,324.874542 214.244080,327.662109 
M272.335297,287.085693 
	C274.713257,287.698822 277.389648,287.815918 279.406403,289.029388 
	C283.482910,291.482239 285.021362,288.205444 286.436890,285.965576 
	C286.954193,285.147034 285.461945,281.983124 284.135712,281.253113 
	C276.682068,277.150208 268.608521,278.012329 260.815979,279.832703 
	C254.744720,281.251007 252.042160,286.302948 252.291443,293.394196 
	C252.549500,300.735291 254.830887,303.732117 261.818451,305.378265 
	C266.184875,306.406921 270.607300,307.242615 275.041687,307.923157 
	C278.284515,308.420868 279.498230,310.507629 278.835602,313.186005 
	C278.319153,315.273560 276.873444,318.427673 275.354340,318.739685 
	C269.682404,319.904602 263.846741,320.318909 258.406158,317.015198 
	C257.289398,316.337067 254.859497,316.449036 253.831696,317.236633 
	C249.605865,320.474884 250.275223,323.939148 256.188843,326.106812 
	C265.035126,329.349426 274.328033,329.459137 282.972809,325.629517 
	C290.093842,322.474915 289.393188,315.442413 288.986298,309.045868 
	C288.627838,303.410980 284.813049,301.040161 279.881348,299.972565 
	C275.980164,299.128052 272.044098,298.440735 268.115448,297.728088 
	C264.691650,297.107086 261.837280,295.705933 262.299683,291.683807 
	C262.729370,287.946411 265.749786,287.177246 268.976318,287.093475 
	C269.808868,287.071838 270.642395,287.086700 272.335297,287.085693 
M62.987034,317.420349 
	C62.987080,318.919159 63.142384,320.437469 62.957436,321.913086 
	C62.446751,325.987701 63.973305,327.498779 68.215546,327.441406 
	C72.195030,327.387482 73.894386,326.386566 73.799393,322.094696 
	C73.589439,312.609161 73.799713,303.113678 73.883980,293.622620 
	C73.922081,289.331696 76.306854,287.243591 80.457115,287.114655 
	C83.618332,287.016418 86.790573,286.966705 89.947342,287.117188 
	C93.146721,287.269623 93.863380,285.620667 93.899498,282.815887 
	C93.937630,279.854767 92.879036,278.530701 89.821175,278.653320 
	C86.163300,278.799988 82.493462,278.618195 78.831612,278.701691 
	C68.402435,278.939514 63.228500,284.038208 63.024426,294.462280 
	C62.881023,301.787048 62.990486,309.116760 62.987034,317.420349 
z"/>
<path fill="#FDFEFF" opacity="1.000000" stroke="none" 
	d="
M241.035034,150.018204 
	C232.455414,156.203217 223.181442,158.583771 213.027344,158.345947 
	C203.710876,158.127762 194.385468,158.301804 185.064011,158.283279 
	C177.213196,158.267670 169.962692,156.134964 163.359711,151.905930 
	C150.620697,143.746964 137.957581,135.468307 125.158852,127.404602 
	C121.756081,125.260719 121.643120,123.129623 123.747986,120.053955 
	C126.751678,115.664864 129.628815,111.180649 132.366547,106.620895 
	C134.368362,103.286812 136.540329,103.002037 139.736969,105.086845 
	C153.940765,114.350441 168.144745,123.621315 182.566864,132.536575 
	C185.622147,134.425247 189.524536,135.365921 193.153381,135.829559 
	C207.080643,137.608948 219.366867,134.182831 230.687057,125.291107 
	C240.059875,117.929008 250.767258,112.283752 260.719696,105.632904 
	C264.590332,103.046265 267.146057,103.073486 269.528503,107.437111 
	C271.753326,111.512123 274.324677,115.434120 277.087006,119.169426 
	C279.897461,122.969810 279.510254,125.412384 275.346466,127.996513 
	C263.903229,135.098434 252.673889,142.545029 241.035034,150.018204 
z"/>
<path fill="#FCFDFF" opacity="1.000000" stroke="none" 
	d="
M266.016541,216.994995 
	C262.937347,220.074142 260.120422,222.911194 257.281158,225.725739 
	C252.622971,230.343353 252.204376,230.354691 247.673401,225.829758 
	C233.647141,211.822235 219.639038,197.796478 205.608231,183.793503 
	C200.929001,179.123566 200.396454,179.140060 195.645813,183.885391 
	C181.503418,198.011932 167.298523,212.077179 153.286285,226.331772 
	C150.103897,229.569199 147.809204,229.819611 144.719696,226.335846 
	C141.189819,222.355545 137.251083,218.735687 133.456955,214.992706 
	C131.248016,212.813522 131.236252,210.732071 133.444901,208.537750 
	C143.370651,198.676315 153.046051,188.548477 163.261780,178.998093 
	C170.692352,172.051468 179.909378,168.819229 190.196777,168.910065 
	C197.192581,168.971832 204.189468,168.945770 211.185699,168.916550 
	C222.600174,168.868851 232.288559,173.049622 240.356171,180.985687 
	C249.024887,189.513107 257.572815,198.163361 266.166901,206.766571 
	C270.917053,211.521805 270.914642,211.889786 266.016541,216.994995 
z"/>
<path fill="#F9FAFE" opacity="1.000000" stroke="none" 
	d="
M151.056335,262.142395 
	C151.338959,258.194611 149.414124,253.687271 156.115662,253.909012 
	C160.521057,254.054794 161.970795,255.427414 161.791458,259.738586 
	C161.516281,266.353943 161.719147,272.989227 161.719147,278.907898 
	C167.780472,278.907898 173.377045,278.631409 178.935074,278.976105 
	C186.308365,279.433319 191.610657,283.408112 192.407074,290.657806 
	C193.321686,298.983643 193.135696,307.535156 192.416977,315.901825 
	C191.864609,322.332184 187.283081,326.587708 180.853653,327.159149 
	C174.141663,327.755768 167.278503,327.607513 160.566986,326.933258 
	C155.713959,326.445709 152.508896,322.970184 151.901901,317.943695 
	C151.366135,313.507050 151.124100,309.012756 151.092545,304.541534 
	C150.993927,290.569427 151.056335,276.596191 151.056335,262.142395 
M169.781570,287.081360 
	C165.909576,287.297791 162.159149,287.939209 162.002426,292.862976 
	C161.785736,299.670685 161.816376,306.490143 161.908737,313.302307 
	C161.959991,317.083435 164.167084,319.062347 167.906113,319.229675 
	C170.389877,319.340820 172.881927,319.361145 175.367828,319.307892 
	C179.269089,319.224304 181.709091,317.169342 182.098389,313.329590 
	C182.582611,308.553558 182.933762,303.733398 182.868835,298.938721 
	C182.735458,289.092651 180.547729,287.104919 169.781570,287.081360 
z"/>
<path fill="#FCFDFF" opacity="1.000000" stroke="none" 
	d="
M210.497269,74.031677 
	C211.969391,75.696007 213.841873,77.318520 213.870239,78.972656 
	C214.107117,92.784431 213.949997,106.602402 214.043915,120.417603 
	C214.066711,123.772179 212.814285,125.359985 209.389877,125.315170 
	C203.564972,125.238914 197.737701,125.239105 191.912720,125.311813 
	C188.757324,125.351204 187.308426,123.852501 187.307724,120.792641 
	C187.304459,106.643944 187.299225,92.495239 187.313065,78.346558 
	C187.316147,75.208649 188.995468,73.932106 192.065994,73.973442 
	C198.057343,74.054108 204.050476,74.001770 210.497269,74.031677 
z"/>
<path fill="#FCFCFE" opacity="1.000000" stroke="none" 
	d="
M296.780518,312.171753 
	C296.807709,305.273956 296.502838,298.776123 297.061188,292.353302 
	C297.741058,284.532043 302.959045,279.402710 310.712372,279.056641 
	C316.621826,278.792877 322.788971,278.723328 328.465210,280.108856 
	C337.201050,282.241150 342.239105,296.832581 336.881134,304.052063 
	C335.356201,306.106842 331.514587,307.163971 328.646454,307.356689 
	C321.719208,307.822205 314.739594,307.507721 307.866821,307.507721 
	C306.467224,315.705750 309.272003,319.507111 317.005646,319.360809 
	C321.365967,319.278290 325.802704,318.334869 330.021362,317.134033 
	C333.746033,316.073853 334.913879,318.789764 336.130951,320.809265 
	C336.605133,321.596039 335.231018,324.573273 334.043030,325.115204 
	C324.358429,329.532837 314.255951,329.437561 304.548492,325.682007 
	C299.218658,323.620026 297.245758,318.254608 296.780518,312.171753 
M316.536438,299.732758 
	C320.267181,299.732758 323.997894,299.732758 327.999664,299.732758 
	C327.827911,294.854218 329.401367,289.673676 324.585724,288.338287 
	C320.278168,287.143890 314.918213,287.323456 310.722351,288.836853 
	C306.626892,290.313995 306.820190,295.181335 307.458618,299.732727 
	C310.302124,299.732727 312.938751,299.732727 316.536438,299.732758 
z"/>
<path fill="#FBFBFE" opacity="1.000000" stroke="none" 
	d="
M127.565125,327.904877 
	C122.784477,327.908630 118.434631,328.159332 114.134781,327.804352 
	C105.734657,327.110870 100.501709,322.984924 99.667831,314.626984 
	C98.851593,306.445953 99.294182,298.050873 100.061836,289.831726 
	C100.563171,284.463928 104.546005,280.326263 109.824326,279.777313 
	C116.818214,279.049927 124.174385,278.810425 130.998962,280.203186 
	C139.668716,281.972504 144.608322,296.994141 139.251923,304.167328 
	C137.788651,306.126892 134.171249,307.162567 131.449692,307.363007 
	C124.659668,307.863068 117.816353,307.638519 110.994530,307.714020 
	C110.844727,307.715668 110.696144,307.827362 110.546989,307.887756 
	C108.700737,314.949982 111.379570,319.331238 118.315338,319.318665 
	C122.999100,319.310181 127.807564,318.439789 132.323746,317.135834 
	C136.102142,316.044922 137.278122,318.644470 138.445175,320.678345 
	C138.937286,321.535980 137.624344,324.403625 136.424026,325.056824 
	C133.867554,326.448090 130.848190,326.988800 127.565125,327.904877 
M122.363602,299.731873 
	C123.195007,299.731781 124.077751,299.913269 124.847641,299.695557 
	C126.719193,299.166504 130.175491,298.213684 130.122482,297.849457 
	C129.650589,294.607544 129.178436,289.170502 127.522743,288.718781 
	C123.041756,287.496216 117.635368,287.342926 113.246658,288.768524 
	C108.996155,290.149231 109.505692,295.145294 109.912201,299.731842 
	C113.862083,299.731842 117.641319,299.731842 122.363602,299.731873 
z"/>
<path fill="#FBFCFE" opacity="1.000000" stroke="none" 
	d="
M213.837479,327.534302 
	C204.332474,324.874542 201.322601,320.627167 201.836426,311.045044 
	C202.223923,303.818481 206.662491,299.088287 214.975800,297.863861 
	C220.365616,297.070038 225.864700,297.018097 231.337814,296.632111 
	C232.755493,289.650879 230.855682,287.009460 223.792923,287.167511 
	C219.706741,287.258972 215.533997,287.796051 211.594894,288.856018 
	C208.102936,289.795624 206.759491,287.675720 206.022629,285.475433 
	C205.639816,284.332336 206.899887,281.620544 208.050247,281.143951 
	C217.152557,277.372955 226.694016,277.228607 235.652130,280.863312 
	C238.589645,282.055206 241.564087,286.801544 241.860657,290.157532 
	C242.675125,299.374481 242.344772,308.727905 241.935303,318.003815 
	C241.705704,323.204559 238.475357,326.777222 233.106888,327.191223 
	C226.844421,327.674133 220.533798,327.532654 213.837479,327.534302 
M224.191376,319.512146 
	C232.049286,318.763092 233.748657,315.345184 231.232025,305.032745 
	C228.650818,305.032745 226.014664,304.980194 223.381210,305.042480 
	C215.189957,305.236176 212.160675,307.318573 212.307739,312.581909 
	C212.443268,317.432281 215.475769,319.335602 224.191376,319.512146 
z"/>
<path fill="#FAFBFE" opacity="1.000000" stroke="none" 
	d="
M271.905396,287.085266 
	C270.642395,287.086700 269.808868,287.071838 268.976318,287.093475 
	C265.749786,287.177246 262.729370,287.946411 262.299683,291.683807 
	C261.837280,295.705933 264.691650,297.107086 268.115448,297.728088 
	C272.044098,298.440735 275.980164,299.128052 279.881348,299.972565 
	C284.813049,301.040161 288.627838,303.410980 288.986298,309.045868 
	C289.393188,315.442413 290.093842,322.474915 282.972809,325.629517 
	C274.328033,329.459137 265.035126,329.349426 256.188843,326.106812 
	C250.275223,323.939148 249.605865,320.474884 253.831696,317.236633 
	C254.859497,316.449036 257.289398,316.337067 258.406158,317.015198 
	C263.846741,320.318909 269.682404,319.904602 275.354340,318.739685 
	C276.873444,318.427673 278.319153,315.273560 278.835602,313.186005 
	C279.498230,310.507629 278.284515,308.420868 275.041687,307.923157 
	C270.607300,307.242615 266.184875,306.406921 261.818451,305.378265 
	C254.830887,303.732117 252.549500,300.735291 252.291443,293.394196 
	C252.042160,286.302948 254.744720,281.251007 260.815979,279.832703 
	C268.608521,278.012329 276.682068,277.150208 284.135712,281.253113 
	C285.461945,281.983124 286.954193,285.147034 286.436890,285.965576 
	C285.021362,288.205444 283.482910,291.482239 279.406403,289.029388 
	C277.389648,287.815918 274.713257,287.698822 271.905396,287.085266 
z"/>
<path fill="#FAFAFE" opacity="1.000000" stroke="none" 
	d="
M62.987034,316.932312 
	C62.990486,309.116760 62.881023,301.787048 63.024426,294.462280 
	C63.228500,284.038208 68.402435,278.939514 78.831612,278.701691 
	C82.493462,278.618195 86.163300,278.799988 89.821175,278.653320 
	C92.879036,278.530701 93.937630,279.854767 93.899498,282.815887 
	C93.863380,285.620667 93.146721,287.269623 89.947342,287.117188 
	C86.790573,286.966705 83.618332,287.016418 80.457115,287.114655 
	C76.306854,287.243591 73.922081,289.331696 73.883980,293.622620 
	C73.799713,303.113678 73.589439,312.609161 73.799393,322.094696 
	C73.894386,326.386566 72.195030,327.387482 68.215546,327.441406 
	C63.973305,327.498779 62.446751,325.987701 62.957436,321.913086 
	C63.142384,320.437469 62.987080,318.919159 62.987034,316.932312 
z"/>
<path fill="#3E59DD" opacity="1.000000" stroke="none" 
	d="
M170.219574,287.080139 
	C180.547729,287.104919 182.735458,289.092651 182.868835,298.938721 
	C182.933762,303.733398 182.582611,308.553558 182.098389,313.329590 
	C181.709091,317.169342 179.269089,319.224304 175.367828,319.307892 
	C172.881927,319.361145 170.389877,319.340820 167.906113,319.229675 
	C164.167084,319.062347 161.959991,317.083435 161.908737,313.302307 
	C161.816376,306.490143 161.785736,299.670685 162.002426,292.862976 
	C162.159149,287.939209 165.909576,287.297791 170.219574,287.080139 
z"/>
<path fill="#445FDE" opacity="1.000000" stroke="none" 
	d="
M316.055908,299.732727 
	C312.938751,299.732727 310.302124,299.732727 307.458618,299.732727 
	C306.820190,295.181335 306.626892,290.313995 310.722351,288.836853 
	C314.918213,287.323456 320.278168,287.143890 324.585724,288.338287 
	C329.401367,289.673676 327.827911,294.854218 327.999664,299.732758 
	C323.997894,299.732758 320.267181,299.732758 316.055908,299.732727 
z"/>
<path fill="#455FDE" opacity="1.000000" stroke="none" 
	d="
M121.892075,299.731873 
	C117.641319,299.731842 113.862083,299.731842 109.912201,299.731842 
	C109.505692,295.145294 108.996155,290.149231 113.246658,288.768524 
	C117.635368,287.342926 123.041756,287.496216 127.522743,288.718781 
	C129.178436,289.170502 129.650589,294.607544 130.122482,297.849457 
	C130.175491,298.213684 126.719193,299.166504 124.847641,299.695557 
	C124.077751,299.913269 123.195007,299.731781 121.892075,299.731873 
z"/>
<path fill="#405BDD" opacity="1.000000" stroke="none" 
	d="
M223.774689,319.514832 
	C215.475769,319.335602 212.443268,317.432281 212.307739,312.581909 
	C212.160675,307.318573 215.189957,305.236176 223.381210,305.042480 
	C226.014664,304.980194 228.650818,305.032745 231.232025,305.032745 
	C233.748657,315.345184 232.049286,318.763092 223.774689,319.514832 
z"/>
</svg>